<svg width="189.65mm" height="47.47mm" version="1.1" viewBox="0 0 189.65 47.47" xmlns="http://www.w3.org/2000/svg">
  <g transform="translate(2.2535 -10.491)">
    <g style="stroke-width:1.9992" aria-label="Cresome">
      <path d="m11.51 30.606q-3.8628 6.8672-3.8628 12.733 0 4.1776 1.8885 5.9802 1.9171 1.8026 6.3522 1.8026h15.909q3.9487 0 3.9487 2.6897 0 1.9457-1.4021 3.033-1.3734 1.1159-3.8914 1.1159h-16.596q-4.1489 0-6.6383-1.1445-3.4622-1.6024-5.4366-4.9501-1.9743-3.3192-1.9743-7.5826 0-5.7227 3.4908-13.677h-2.3463q-3.2047 0-3.2047-2.7469 0-1.7168 1.3162-2.89 1.3162-1.2018 3.2047-1.2018h4.9215q2.5752-4.292 6.9244-8.2693 5.551-5.0074 11.989-5.0074 4.2348 0 7.0103 2.6038 2.7755 2.6038 2.7755 6.6383 0 5.7513-5.3507 8.8129-3.6339 2.0602-11.56 2.0602zm4.2634-6.8386h5.551q7.1247 0 7.1247-3.8056 0-1.2018-0.94424-1.9457-0.91563-0.77256-2.3463-0.77256-2.2032 0-4.7498 1.774-2.5466 1.774-4.6354 4.7498z" style="fill:#de5149"/>
      <path d="m37.891 34.526-0.97286 2.4035q-1.3162 3.2047-3.4336 3.2047-1.2876 0-2.146-0.77256-0.8584-0.77256-0.8584-1.9171 0-0.65811 0.6295-2.2318l3.2333-7.9831q1.1732-2.89 3.3192-2.89 2.1174 0 2.6038 2.0029l0.22891 0.88702q0.17168 0.68672 0.51504 0.8584 0.34336 0.17168 1.6882 0.17168h6.6955q3.7484 0 3.7484 2.6324 0 3.6339-4.7498 3.6339l-0.31475 0.28614q-4.5495 4.3492-4.5495 6.7242 0 2.3749 2.6324 2.3749h3.6053q3.6339 0 3.6339 2.518 0 1.774-1.2876 2.7469-1.259 0.97286-3.5481 0.97286h-5.6082q-2.8613 0-4.6926-1.9743-1.8026-1.9743-1.8026-5.1218 0-2.0029 0.97286-3.8914 0.97286-1.8885 3.4336-4.6354z" style="fill:#81a4b9"/>
      <path d="m61.526 41.765q0 2.146 3.2333 2.146h8.4982q3.6053 0 3.6053 2.5466 0 1.7454-1.2876 2.7183-1.259 0.97286-3.5481 0.97286h-8.0976q-4.5209 0-6.8958-2.2318-2.3463-2.2318-2.3463-6.5239 0-5.5224 3.7197-9.5283 3.7484-4.0059 8.8988-4.0059 3.7484 0 6.0088 1.9743 2.2891 1.9457 2.2891 5.1504 0 3.8628-3.1475 5.7227-1.7454 1.0587-5.2076 1.0587zm1.3734-5.2076h3.1475q3.0616 0 2.9758-1.3448-0.08584-1.5165-1.9743-1.5165-2.6324 0-4.1489 2.8613z" style="fill:#81a4b9"/>
      <path d="m87.478 36.071-0.54366 1.3162q-1.259 2.8327-3.5767 2.8327-1.1732 0-2.1174-0.80118-0.91563-0.82979-0.91563-1.8885 0-1.0015 0.82979-2.661l3.8056-7.7256q1.4021-2.7755 3.4908-2.7755 1.1159 0 1.9171 0.74395 0.80118 0.71534 0.80118 1.7168 0 0.25752-0.17168 1.1159-0.11445 0.6295-0.11445 1.1159 0 1.8026 1.3448 3.6911l1.631 2.2605q2.4894 3.4622 2.4894 6.6955 0 3.6053-2.6897 6.0374-2.6897 2.4035-6.6955 2.4035h-5.9802q-3.6339 0-3.6339-2.518 0-1.7454 1.2876-2.7183 1.2876-1.0015 3.5481-1.0015h3.3192q3.9773 0 3.9773-2.89 0-1.0587-0.74395-2.4894z" style="fill:#81a4b9"/>
      <path d="m111.66 27.859q4.149 0 6.81 2.6324 2.6897 2.6324 2.6897 6.6955 0 3.0616-1.4021 6.0947-1.402 3.0044-3.6339 4.8071-1.4879 1.1732-3.0902 1.631-1.5737 0.4292-4.4351 0.4292-4.664 0-6.295-1.1159-3.8342-2.6324-3.8342-7.7829 0-5.4366 3.92-9.4138 3.92-3.9773 9.2708-3.9773zm-0.68672 6.0947q-2.1174 0-3.8628 2.0888t-1.7454 4.6068q0 3.3192 3.7197 3.3192 2.1746 0 3.3478-1.3448 1.9457-2.2032 1.9457-5.036 0-1.631-0.94424-2.6324-0.94425-1.0015-2.4608-1.0015z" style="fill:#81a4b9"/>
      <path d="m157.09 43.911h3.405q3.6053 0 3.6053 2.5466 0 1.7454-1.2876 2.7183-1.259 0.97286-3.5195 0.97286h-5.8085q-1.8885 0-3.0616-1.0015t-1.1732-2.6324q0-1.1159 0.77256-3.033l2.6897-6.5525q0.2289-0.57227 0.2289-1.0587 0-1.8599-1.8885-1.8599-1.4593 0-2.89 1.3162-1.4307 1.3162-2.2891 3.4908l-3.2047 7.8973q-1.5737 3.8342-4.5782 3.8342-1.1732 0-2.0029-0.77256-0.82978-0.77256-0.82978-1.8313 0-0.82979 0.4292-1.9457l0.31474-0.77256 3.2333-7.9831q0.4292-1.0587 0.4292-1.6596 0-0.6295-0.57227-1.0873-0.57226-0.48643-1.3448-0.48643-3.0902 0-4.8929 4.4637l-3.3478 8.2121q-1.5737 3.8628-4.5495 3.8628-1.1732 0-2.0316-0.74395-0.82979-0.77256-0.82979-1.8599 0-0.8584 0.4292-1.9457l0.31475-0.77256 5.6941-14.021q1.2018-2.9472 3.6053-2.9472 2.4894 0 3.0902 2.3463 1.9457-1.6596 3.1475-2.2032 1.2304-0.54366 3.0044-0.54366 3.8342 0 5.7513 3.3478 3.2047-3.3478 7.2106-3.3478 2.7469 0 4.5782 1.6024 1.8599 1.5737 1.8599 3.8914 0 1.4593-0.62949 3.0044z" style="fill:#81a4b9"/>
      <path d="m172.06 41.765q0 2.146 3.2333 2.146h8.4982q3.6053 0 3.6053 2.5466 0 1.7454-1.2876 2.7183-1.259 0.97286-3.5481 0.97286h-8.0976q-4.5209 0-6.8958-2.2318-2.3463-2.2318-2.3463-6.5239 0-5.5224 3.7197-9.5283 3.7484-4.0059 8.8988-4.0059 3.7484 0 6.0088 1.9743 2.2891 1.9457 2.2891 5.1504 0 3.8628-3.1475 5.7227-1.7454 1.0587-5.2076 1.0587zm1.3734-5.2076h3.1475q3.0616 0 2.9758-1.3448-0.0858-1.5165-1.9743-1.5165-2.6324 0-4.149 2.8613z" style="fill:#81a4b9"/>
    </g>
  </g>
</svg>
